# xmcd
#
# Track frame offsets: 
#        150
#        13614
#        29808
#        43242
#        56795
#        66328
#        84498
#        100146
#        121014
#        134661
#        152316
#        164399
#        179082
#        196354
#        211853
#        225062
#        237386
#        251756
#        264355
#        280637
#        297989
#        316617
#        336406
#
# Disc length: 4716 seconds
#
# Revision: 0
# Processed by: cddbd v1.5.2PL0 Copyright (c) Steve Scherf et al.
# Submitted via: ExactAudioCopy v0.99pb5
#
DISCID=4b126a17
DTITLE=Various Artist - The Blues Box [CD 3 of 7)
DYEAR=2009
DGENRE=Blues
TTITLE0=Rosevelt Sykes - Big Ben
TTITLE1=Rosevelt Sykes - Boot That Thing
TTITLE2=Rosevelt Sykes - Springfield Blues
TTITLE3=Rosevelt Sykes - Henry Ford Blues
TTITLE4=Rosevelt Sykes - I'm A Dangerous Man
TTITLE5=Rosevelt Sykes - True Thing
TTITLE6=Rosevelt Sykes - Whole Lot Of Children
TTITLE7=Rosevelt Sykes - The Last Laugh
TTITLE8=Rosevelt Sykes - 44 Blues
TTITLE9=Sippie Wallace - Women Be Wise
TTITLE10=Sippie Wallace - Trouble Everywhere I Roam
TTITLE11=Sippie Wallace - Special Delivery Blues
TTITLE12=Sippie Wallace - Murder Gonna Be My Crime
TTITLE13=Sippie Wallace - Shorty George Blues
TTITLE14=Sippie Wallace - I'm A Mighty Tight Woman
TTITLE15=Sippie Wallace - Bedroom Blues
TTITLE16=Sippie Wallace - Up The Country Blues
TTITLE17=Sippie Wallace - You Don't Know My Mind
TTITLE18=Little Brother Montgomery - I Must Get Mine In Front
TTITLE19=Little Brother Montgomery - Willie Anderson's Blues
TTITLE20=Little Brother Montgomery - Jim Jam Blues
TTITLE21=Little Brother Montgomery - Hesitatin' Blues
TTITLE22=Little Brother Montgomery - Mama, You Don't Mean No Good
EXTD=
EXTT0=
EXTT1=
EXTT2=
EXTT3=
EXTT4=
EXTT5=
EXTT6=
EXTT7=
EXTT8=
EXTT9=
EXTT10=
EXTT11=
EXTT12=
EXTT13=
EXTT14=
EXTT15=
EXTT16=
EXTT17=
EXTT18=
EXTT19=
EXTT20=
EXTT21=
EXTT22=
PLAYORDER=
